<svg xmlns="http://www.w3.org/2000/svg" viewBox="0 0 1200 675" role="img" aria-label="AI workflow system concept">
  <rect width="1200" height="675" fill="#17201d"/>
  <rect x="126" y="112" width="310" height="162" rx="16" fill="#f8f4ed"/>
  <rect x="126" y="386" width="310" height="162" rx="16" fill="#f8f4ed"/>
  <rect x="764" y="112" width="310" height="162" rx="16" fill="#f8f4ed"/>
  <rect x="764" y="386" width="310" height="162" rx="16" fill="#f8f4ed"/>
  <circle cx="600" cy="337" r="112" fill="#24453a" stroke="#d89b39" stroke-width="16"/>
  <path d="M532 337h136M600 269v136" stroke="#f8f4ed" stroke-width="18" stroke-linecap="round"/>
  <path d="M436 193h252M436 467h252M764 193h-252M764 467h-252" stroke="#7aa6b2" stroke-width="10" stroke-linecap="round"/>
  <rect x="164" y="154" width="160" height="18" rx="6" fill="#b2563d"/>
  <rect x="164" y="202" width="222" height="14" rx="5" fill="#dfd6c8"/>
  <rect x="802" y="154" width="176" height="18" rx="6" fill="#24453a"/>
  <rect x="802" y="202" width="222" height="14" rx="5" fill="#dfd6c8"/>
  <rect x="164" y="428" width="190" height="18" rx="6" fill="#d89b39"/>
  <rect x="802" y="428" width="150" height="18" rx="6" fill="#7aa6b2"/>
</svg>
