<svg xmlns="http://www.w3.org/2000/svg" viewBox="0 0 1200 675" role="img" aria-label="Career tracking dashboard concept">
  <rect width="1200" height="675" fill="#eef3ef"/>
  <rect x="92" y="76" width="1016" height="523" rx="18" fill="#ffffff" stroke="#dfd6c8" stroke-width="4"/>
  <rect x="142" y="126" width="220" height="423" rx="12" fill="#24453a"/>
  <rect x="398" y="126" width="176" height="70" rx="10" fill="#f8f4ed"/>
  <rect x="602" y="126" width="176" height="70" rx="10" fill="#f8f4ed"/>
  <rect x="806" y="126" width="176" height="70" rx="10" fill="#f8f4ed"/>
  <rect x="398" y="244" width="584" height="54" rx="8" fill="#7aa6b2"/>
  <rect x="398" y="322" width="504" height="54" rx="8" fill="#d89b39"/>
  <rect x="398" y="400" width="544" height="54" rx="8" fill="#b2563d"/>
  <rect x="178" y="168" width="132" height="18" rx="6" fill="#f8f4ed"/>
  <rect x="178" y="224" width="108" height="14" rx="5" fill="#c7d5d8"/>
  <rect x="178" y="262" width="132" height="14" rx="5" fill="#c7d5d8"/>
  <rect x="178" y="300" width="86" height="14" rx="5" fill="#c7d5d8"/>
</svg>
